<?xml version="1.0" encoding="UTF-8"?>
<svg width="21px" height="20px" viewBox="0 0 21 20" version="1.1" xmlns="http://www.w3.org/2000/svg" xmlns:xlink="http://www.w3.org/1999/xlink">
    <!-- Generator: Sketch 52.6 (67491) - http://www.bohemiancoding.com/sketch -->
    <title>Z_logo</title>
    <desc>Created with Sketch.</desc>
    <g id="Desktop" stroke="none" stroke-width="1" fill="none" fill-rule="evenodd">
        <g id="tovari_final_black" transform="translate(-1589.000000, -3317.000000)" fill="#FFFFFF" fill-rule="nonzero">
            <g id="Z_logo" transform="translate(1589.000000, 3317.000000)">
                <path d="M20.972,1.88769231 L12.1053333,14.1123077 C11.8695051,14.4388615 11.4875149,14.6312027 11.0817778,14.6276923 L9.02533333,14.6092308 L18.3337778,2.10307692 L18.3011111,2.04 L3.13288889,2.04 C2.66363522,2.04121558 2.23358964,1.78126487 2.02066667,1.36769231 L1.43577778,0.241538462 C1.41564538,0.203368503 1.41714209,0.15756913 1.43972464,0.120764574 C1.46230718,0.0839600175 1.50269276,0.0615005369 1.54622222,0.0615384615 L20.02,0.0492307692 C20.0673084,0.0489051485 20.1107118,0.0751379942 20.132,0.116923077 L20.9828889,1.75384615 C21.0063548,1.79666268 21.0020858,1.84913719 20.972,1.88769231 Z" id="Shape"></path>
                <path d="M0.0264444444,18.1123077 L8.95844444,5.80461538 C9.19300391,5.47984471 9.57223255,5.28772616 9.97577778,5.28923077 L12.0477778,5.28923077 L2.66466667,17.8938462 L2.69733333,17.9569231 L17.8655556,17.9569231 C18.3348092,17.9557075 18.7648548,18.2156582 18.9777778,18.6292308 L19.5626667,19.7553846 C19.5827991,19.7935546 19.5813024,19.8393539 19.5587198,19.8761585 C19.5361373,19.9129631 19.4957517,19.9354225 19.4522222,19.9353846 L0.978444444,19.9476923 C0.931136034,19.9480179 0.887732599,19.9217851 0.866444444,19.88 L0.0155555556,18.2430769 C-0.00656980116,18.2010484 -0.00233493884,18.1501901 0.0264444444,18.1123077 Z" id="Shape"></path>
            </g>
        </g>
    </g>
</svg>